<svg width="60" height="60" viewBox="0 0 60 60" fill="none" xmlns="http://www.w3.org/2000/svg">
<circle cx="30" cy="30" r="30" fill="#C62827"/>
<mask id="mask0_150_2264" style="mask-type:alpha" maskUnits="userSpaceOnUse" x="10" y="10" width="40" height="40">
<rect x="10" y="10" width="40" height="40" fill="#D9D9D9"/>
</mask>
<g mask="url(#mask0_150_2264)">
<path d="M28.3332 40C25.0832 40 22.3262 38.8681 20.0623 36.6042C17.7984 34.3403 16.6665 31.5833 16.6665 28.3333V18.3333C16.6665 17.4167 16.9929 16.6319 17.6457 15.9792C18.2984 15.3264 19.0832 15 19.9998 15H40.8332C42.4443 15 43.8193 15.5694 44.9582 16.7083C46.0971 17.8472 46.6665 19.2222 46.6665 20.8333C46.6665 22.4444 46.0971 23.8194 44.9582 24.9583C43.8193 26.0972 42.4443 26.6667 40.8332 26.6667H39.9998V28.3333C39.9998 31.5833 38.8679 34.3403 36.604 36.6042C34.3401 38.8681 31.5832 40 28.3332 40ZM19.9998 23.3333H36.6665V18.3333H19.9998V23.3333ZM39.9998 23.3333H40.8332C41.5276 23.3333 42.1179 23.0903 42.604 22.6042C43.0901 22.1181 43.3332 21.5278 43.3332 20.8333C43.3332 20.1389 43.0901 19.5486 42.604 19.0625C42.1179 18.5764 41.5276 18.3333 40.8332 18.3333H39.9998V23.3333ZM16.6665 45V41.6667H43.3332V45H16.6665Z" fill="white"/>
</g>
</svg>
