<svg width="60" height="60" viewBox="0 0 60 60" fill="none" xmlns="http://www.w3.org/2000/svg">
<circle cx="30" cy="30" r="29.5" fill="white" stroke="#ADB6BD"/>
<mask id="mask0_150_2291" style="mask-type:alpha" maskUnits="userSpaceOnUse" x="10" y="10" width="41" height="40">
<rect x="10.2554" y="10" width="40" height="40" fill="#D9D9D9"/>
</mask>
<g mask="url(#mask0_150_2291)">
<path d="M28.5885 40C25.3385 40 22.5816 38.8681 20.3177 36.6042C18.0538 34.3403 16.9219 31.5833 16.9219 28.3333V18.3333C16.9219 17.4167 17.2483 16.6319 17.901 15.9792C18.5538 15.3264 19.3385 15 20.2552 15H41.0885C42.6997 15 44.0747 15.5694 45.2135 16.7083C46.3524 17.8472 46.9219 19.2222 46.9219 20.8333C46.9219 22.4444 46.3524 23.8194 45.2135 24.9583C44.0747 26.0972 42.6997 26.6667 41.0885 26.6667H40.2552V28.3333C40.2552 31.5833 39.1233 34.3403 36.8594 36.6042C34.5955 38.8681 31.8385 40 28.5885 40ZM20.2552 23.3333H36.9219V18.3333H20.2552V23.3333ZM28.5885 36.6667C30.8941 36.6667 32.8594 35.8542 34.4844 34.2292C36.1094 32.6042 36.9219 30.6389 36.9219 28.3333V26.6667H20.2552V28.3333C20.2552 30.6389 21.0677 32.6042 22.6927 34.2292C24.3177 35.8542 26.283 36.6667 28.5885 36.6667ZM40.2552 23.3333H41.0885C41.783 23.3333 42.3733 23.0903 42.8594 22.6042C43.3455 22.1181 43.5885 21.5278 43.5885 20.8333C43.5885 20.1389 43.3455 19.5486 42.8594 19.0625C42.3733 18.5764 41.783 18.3333 41.0885 18.3333H40.2552V23.3333ZM16.9219 45V41.6667H43.5885V45H16.9219Z" fill="#ADB6BD"/>
</g>
</svg>
