<svg width="60" height="60" viewBox="0 0 60 60" fill="none" xmlns="http://www.w3.org/2000/svg">
<circle cx="30" cy="30" r="30" fill="#C62827"/>
<mask id="mask0_150_2251" style="mask-type:alpha" maskUnits="userSpaceOnUse" x="10" y="10" width="40" height="40">
<rect x="10" y="10" width="40" height="40" fill="#D9D9D9"/>
</mask>
<g mask="url(#mask0_150_2251)">
<path d="M20 46.6663V31.4163C18.5 31.0275 17.2917 30.2358 16.375 29.0413C15.4583 27.8469 15 26.4997 15 24.9997V13.333H18.3333V23.333H20V13.333H23.3333V23.333H25V13.333H28.3333V24.9997C28.3333 26.4997 27.875 27.8469 26.9583 29.0413C26.0417 30.2358 24.8333 31.0275 23.3333 31.4163V46.6663H20ZM36.6667 46.6663V30.7913C35.1667 30.2913 33.9583 29.2427 33.0417 27.6455C32.125 26.0483 31.6667 24.2358 31.6667 22.208C31.6667 19.7358 32.3194 17.6386 33.625 15.9163C34.9306 14.1941 36.5 13.333 38.3333 13.333C40.1667 13.333 41.7361 14.2011 43.0417 15.9372C44.3472 17.6733 45 19.7775 45 22.2497C45 24.2775 44.5417 26.083 43.625 27.6663C42.7083 29.2497 41.5 30.2913 40 30.7913V46.6663H36.6667Z" fill="white"/>
</g>
</svg>
