<svg width="60" height="60" viewBox="0 0 60 60" fill="none" xmlns="http://www.w3.org/2000/svg">
<circle cx="30" cy="30" r="30" fill="#C62827"/>
<mask id="mask0_150_2265" style="mask-type:alpha" maskUnits="userSpaceOnUse" x="10" y="10" width="40" height="40">
<rect x="10" y="10" width="40" height="40" fill="#D9D9D9"/>
</mask>
<g mask="url(#mask0_150_2265)">
<path d="M13.417 28.291C13.5559 26.8743 13.8475 25.5341 14.292 24.2702C14.7364 23.0063 15.3475 21.8188 16.1253 20.7077C17.0975 21.7077 17.91 22.8674 18.5628 24.1868C19.2156 25.5063 19.6392 26.8743 19.8337 28.291H13.417ZM40.167 28.291C40.3614 26.8743 40.7781 25.5132 41.417 24.2077C42.0559 22.9021 42.8753 21.7493 43.8753 20.7493C44.6531 21.8327 45.2642 23.0132 45.7087 24.291C46.1531 25.5688 46.4448 26.9021 46.5837 28.291H40.167ZM16.1253 39.2493C15.3475 38.166 14.7364 36.9924 14.292 35.7285C13.8475 34.4646 13.5559 33.1243 13.417 31.7077H19.8337C19.6392 33.1243 19.2156 34.4855 18.5628 35.791C17.91 37.0966 17.0975 38.2493 16.1253 39.2493ZM43.8753 39.2493C42.8753 38.2493 42.0559 37.0966 41.417 35.791C40.7781 34.4855 40.3614 33.1243 40.167 31.7077H46.5837C46.4448 33.0966 46.1531 34.4299 45.7087 35.7077C45.2642 36.9855 44.6531 38.166 43.8753 39.2493ZM23.2087 28.291C22.9864 26.291 22.4448 24.4438 21.5837 22.7493C20.7225 21.0549 19.5975 19.5271 18.2087 18.166C19.542 16.8327 21.0628 15.7632 22.7712 14.9577C24.4795 14.1521 26.3198 13.6382 28.292 13.416V28.291H23.2087ZM31.7087 28.291V13.416C33.6809 13.6382 35.5212 14.1521 37.2295 14.9577C38.9378 15.7632 40.4587 16.8327 41.792 18.166C40.3753 19.4993 39.2434 21.0202 38.3962 22.7285C37.5489 24.4368 37.0142 26.291 36.792 28.291H31.7087ZM28.292 46.5827C26.292 46.3605 24.4448 45.8396 22.7503 45.0202C21.0559 44.2007 19.542 43.1243 18.2087 41.791C19.6253 40.4577 20.7573 38.9438 21.6045 37.2493C22.4517 35.5549 22.9864 33.7077 23.2087 31.7077H28.292V46.5827ZM31.7087 46.5827V31.7077H36.792C37.0142 33.7077 37.5489 35.5618 38.3962 37.2702C39.2434 38.9785 40.3753 40.4993 41.792 41.8327C40.4587 43.166 38.9378 44.2355 37.2295 45.041C35.5212 45.8466 33.6809 46.3605 31.7087 46.5827Z" fill="white"/>
</g>
</svg>
