<svg width="60" height="60" viewBox="0 0 60 60" fill="none" xmlns="http://www.w3.org/2000/svg">
<circle cx="30" cy="30" r="30" fill="#C62827"/>
<mask id="mask0_150_2263" style="mask-type:alpha" maskUnits="userSpaceOnUse" x="10" y="10" width="40" height="40">
<rect x="10" y="10" width="40" height="40" fill="#D9D9D9"/>
</mask>
<g mask="url(#mask0_150_2263)">
<path d="M20.0001 28.25L18.3334 29.1667C17.9445 29.3889 17.5278 29.4444 17.0834 29.3333C16.6389 29.2222 16.3056 28.9722 16.0834 28.5833L12.7501 22.75C12.5278 22.3611 12.4723 21.9444 12.5834 21.5C12.6945 21.0556 12.9445 20.7222 13.3334 20.5L22.9167 15H25.8334C26.0834 15 26.2848 15.0764 26.4376 15.2292C26.5903 15.3819 26.6667 15.5833 26.6667 15.8333V16.6667C26.6667 17.5833 26.9931 18.3681 27.6459 19.0208C28.2987 19.6736 29.0834 20 30.0001 20C30.9167 20 31.7014 19.6736 32.3542 19.0208C33.007 18.3681 33.3334 17.5833 33.3334 16.6667V15.8333C33.3334 15.5833 33.4098 15.3819 33.5626 15.2292C33.7153 15.0764 33.9167 15 34.1667 15H37.0834L46.6667 20.5C47.0556 20.7222 47.3056 21.0556 47.4167 21.5C47.5278 21.9444 47.4723 22.3611 47.2501 22.75L43.9167 28.5833C43.6945 28.9722 43.3681 29.2153 42.9376 29.3125C42.507 29.4097 42.0834 29.3472 41.6667 29.125L40.0001 28.2917V43.3333C40.0001 43.8056 39.8403 44.2014 39.5209 44.5208C39.2014 44.8403 38.8056 45 38.3334 45H21.6667C21.1945 45 20.7987 44.8403 20.4792 44.5208C20.1598 44.2014 20.0001 43.8056 20.0001 43.3333V28.25Z" fill="white"/>
</g>
</svg>
