<svg width="60" height="60" viewBox="0 0 60 60" fill="none" xmlns="http://www.w3.org/2000/svg">
<circle cx="30" cy="30" r="29.5" fill="white" stroke="#ADB6BD"/>
<mask id="mask0_150_2294" style="mask-type:alpha" maskUnits="userSpaceOnUse" x="10" y="10" width="40" height="40">
<rect x="10" y="10" width="40" height="40" fill="#D9D9D9"/>
</mask>
<g mask="url(#mask0_150_2294)">
<path d="M32.5002 46.6663C29.5002 46.6663 26.9446 45.6108 24.8335 43.4997C22.7224 41.3886 21.6668 38.833 21.6668 35.833V34.8747C19.2779 34.4858 17.2918 33.3677 15.7085 31.5205C14.1252 29.6733 13.3335 27.4997 13.3335 24.9997V14.9997H18.3335V13.333H21.6668V19.9997H18.3335V18.333H16.6668V24.9997C16.6668 26.833 17.3196 28.4025 18.6252 29.708C19.9307 31.0136 21.5002 31.6663 23.3335 31.6663C25.1668 31.6663 26.7363 31.0136 28.0418 29.708C29.3474 28.4025 30.0002 26.833 30.0002 24.9997V18.333H28.3335V19.9997H25.0002V13.333H28.3335V14.9997H33.3335V24.9997C33.3335 27.4997 32.5418 29.6733 30.9585 31.5205C29.3752 33.3677 27.3891 34.4858 25.0002 34.8747V35.833C25.0002 37.9163 25.7293 39.6872 27.1877 41.1455C28.646 42.6038 30.4168 43.333 32.5002 43.333C34.5835 43.333 36.3543 42.6038 37.8127 41.1455C39.271 39.6872 40.0002 37.9163 40.0002 35.833V33.0413C39.0279 32.708 38.2293 32.1108 37.6043 31.2497C36.9793 30.3886 36.6668 29.4163 36.6668 28.333C36.6668 26.9441 37.1529 25.7636 38.1252 24.7913C39.0974 23.8191 40.2779 23.333 41.6668 23.333C43.0557 23.333 44.2363 23.8191 45.2085 24.7913C46.1807 25.7636 46.6668 26.9441 46.6668 28.333C46.6668 29.4163 46.3543 30.3886 45.7293 31.2497C45.1043 32.1108 44.3057 32.708 43.3335 33.0413V35.833C43.3335 38.833 42.2779 41.3886 40.1668 43.4997C38.0557 45.6108 35.5002 46.6663 32.5002 46.6663ZM42.8543 29.5205C43.1738 29.2011 43.3335 28.8052 43.3335 28.333C43.3335 27.8608 43.1738 27.465 42.8543 27.1455C42.5349 26.8261 42.1391 26.6663 41.6668 26.6663C41.1946 26.6663 40.7988 26.8261 40.4793 27.1455C40.1599 27.465 40.0002 27.8608 40.0002 28.333C40.0002 28.8052 40.1599 29.2011 40.4793 29.5205C40.7988 29.84 41.1946 29.9997 41.6668 29.9997C42.1391 29.9997 42.5349 29.84 42.8543 29.5205Z" fill="#ADB6BD"/>
</g>
</svg>
