<svg width="60" height="60" viewBox="0 0 60 60" fill="none" xmlns="http://www.w3.org/2000/svg">
<circle cx="30" cy="30" r="29.5" fill="white" stroke="#ADB6BD"/>
<mask id="mask0_150_2292" style="mask-type:alpha" maskUnits="userSpaceOnUse" x="10" y="10" width="40" height="40">
<rect x="10" y="10" width="40" height="40" fill="#D9D9D9"/>
</mask>
<g mask="url(#mask0_150_2292)">
<path d="M16.7502 28.333H21.5002C21.3335 27.2775 21.0141 26.2913 20.5418 25.3747C20.0696 24.458 19.4724 23.6386 18.7502 22.9163C18.2502 23.7219 17.8266 24.5761 17.4793 25.4788C17.1321 26.3816 16.8891 27.333 16.7502 28.333ZM38.5002 28.333H43.2502C43.1113 27.333 42.8682 26.3816 42.521 25.4788C42.1738 24.5761 41.7502 23.7219 41.2502 22.9163C40.5279 23.6386 39.9307 24.458 39.4585 25.3747C38.9863 26.2913 38.6668 27.2775 38.5002 28.333ZM18.7502 37.083C19.4724 36.3608 20.0696 35.5413 20.5418 34.6247C21.0141 33.708 21.3335 32.7219 21.5002 31.6663H16.7502C16.8891 32.6663 17.1321 33.6177 17.4793 34.5205C17.8266 35.4233 18.2502 36.2775 18.7502 37.083ZM41.2502 37.083C41.7502 36.2775 42.1738 35.4233 42.521 34.5205C42.8682 33.6177 43.1113 32.6663 43.2502 31.6663H38.5002C38.6668 32.7219 38.9863 33.708 39.4585 34.6247C39.9307 35.5413 40.5279 36.3608 41.2502 37.083ZM24.9168 28.333H28.3335V16.7497C26.8613 16.9719 25.4932 17.3816 24.2293 17.9788C22.9654 18.5761 21.8335 19.3608 20.8335 20.333C21.9168 21.3886 22.8127 22.59 23.521 23.9372C24.2293 25.2844 24.6946 26.7497 24.9168 28.333ZM31.6668 28.333H35.0835C35.3057 26.7497 35.771 25.2844 36.4793 23.9372C37.1877 22.59 38.0835 21.3886 39.1668 20.333C38.1668 19.3608 37.0349 18.5761 35.771 17.9788C34.5071 17.3816 33.1391 16.9719 31.6668 16.7497V28.333ZM28.3335 43.2497V31.6663H24.9168C24.6946 33.2497 24.2293 34.715 23.521 36.0622C22.8127 37.4094 21.9168 38.6108 20.8335 39.6663C21.8335 40.6386 22.9654 41.4233 24.2293 42.0205C25.4932 42.6177 26.8613 43.0275 28.3335 43.2497ZM31.6668 43.2497C33.1391 43.0275 34.5071 42.6177 35.771 42.0205C37.0349 41.4233 38.1668 40.6386 39.1668 39.6663C38.0835 38.6108 37.1877 37.4094 36.4793 36.0622C35.771 34.715 35.3057 33.2497 35.0835 31.6663H31.6668V43.2497ZM30.0002 46.6663C27.6946 46.6663 25.5279 46.2288 23.5002 45.3538C21.4724 44.4788 19.7085 43.2913 18.2085 41.7913C16.7085 40.2913 15.521 38.5275 14.646 36.4997C13.771 34.4719 13.3335 32.3052 13.3335 29.9997C13.3335 27.6941 13.771 25.5275 14.646 23.4997C15.521 21.4719 16.7085 19.708 18.2085 18.208C19.7085 16.708 21.4724 15.5205 23.5002 14.6455C25.5279 13.7705 27.6946 13.333 30.0002 13.333C32.3057 13.333 34.4724 13.7705 36.5002 14.6455C38.5279 15.5205 40.2918 16.708 41.7918 18.208C43.2918 19.708 44.4793 21.4719 45.3543 23.4997C46.2293 25.5275 46.6668 27.6941 46.6668 29.9997C46.6668 32.3052 46.2293 34.4719 45.3543 36.4997C44.4793 38.5275 43.2918 40.2913 41.7918 41.7913C40.2918 43.2913 38.5279 44.4788 36.5002 45.3538C34.4724 46.2288 32.3057 46.6663 30.0002 46.6663Z" fill="#ADB6BD"/>
</g>
</svg>
