<svg width="32" height="19" viewBox="0 0 32 19" fill="none" xmlns="http://www.w3.org/2000/svg">
<path d="M15.987 12.7559C16.0593 12.742 16.1659 12.7443 16.2132 12.8314C16.2428 13.0671 15.8627 13.095 15.7987 12.9881C15.7348 12.8813 15.9302 12.7663 15.987 12.7559Z" fill="white"/>
<path d="M24.5127 0.00997233C24.823 -0.0538913 25.3441 0.19808 25.4484 0.505786C25.5526 0.813492 25.3276 1.44864 25.3015 1.81557C25.2541 2.49717 25.3299 2.69689 25.7385 3.22173C26.8257 4.62092 29.4395 6.17687 31.165 6.63553C31.4646 6.71565 32.1835 6.67153 31.9549 7.0849C31.8353 7.29971 30.9104 8.50731 30.7363 8.66755C30.6084 8.78483 30.5492 8.79876 30.3845 8.74535C29.8409 8.57002 28.813 7.9697 28.2848 7.6678C26.5107 6.65179 25.0054 5.46973 23.7737 3.84876C23.5618 3.57008 23.6091 3.33901 23.1508 3.42493C22.6984 3.5097 22.0979 3.76399 21.61 3.88475C20.646 4.12163 19.6429 4.28883 18.6528 4.38985C15.2384 4.7382 11.7388 4.47113 8.46893 3.45048C8.24036 3.47254 8.0106 3.96952 7.86612 4.16227C6.66049 5.76466 5.10431 6.90492 3.35628 7.89306C2.91098 8.14503 2.07012 8.64201 1.61179 8.78483C1.45546 8.8336 1.37848 8.7767 1.26716 8.6722C1.10964 8.35056 0.0271857 7.25327 -5.33311e-05 7.00478C-0.0284767 6.73539 0.530517 6.75745 0.730665 6.70636C2.4183 6.27789 5.65383 4.36431 6.42363 2.7921C6.76945 2.08612 6.1394 0.914513 6.39166 0.431472C6.52075 0.185307 7.1354 -0.0689863 7.36516 0.0924144C7.45516 0.156278 7.43503 0.280522 7.48951 0.373414C7.95613 1.17461 9.88536 1.62166 10.7712 1.81441C13.623 2.43447 16.7638 2.49601 19.65 2.05245C20.794 1.87711 23.7051 1.3035 24.3043 0.2991C24.373 0.182985 24.2984 0.051774 24.5116 0.00765002L24.5127 0.00997233Z" fill="black"/>
<path d="M4.9836 8.76852C4.89952 8.68259 4.92557 8.55487 4.99663 8.46894C5.13046 8.3087 5.65392 8.00564 5.85999 7.83727C6.96732 6.93854 7.83186 5.98639 8.61706 4.80665C8.6822 4.70796 8.65969 4.60461 8.78997 4.52798C8.9913 4.4107 9.38804 4.66267 9.62017 4.7335C9.80611 4.7904 9.99678 4.84729 10.1863 4.8949C10.3758 4.94251 11.1479 5.0354 11.2071 5.14803C11.2971 5.32337 10.9584 5.95039 10.859 6.15127C10.1946 7.48196 9.26724 8.69188 8.27716 9.80195C8.13623 9.88091 7.96214 9.86697 7.81173 9.82169L4.9836 8.7662V8.76852Z" fill="black"/>
<path d="M19.3078 5.20849C19.7981 5.16437 19.7271 5.60793 19.8538 5.99343C20.2387 7.16039 20.6757 8.30762 21.1258 9.45136C21.1862 9.64991 21.1033 9.8206 20.8913 9.85428C20.4069 9.92975 19.6489 9.86124 19.1124 9.90188C18.5759 9.94252 18.0406 10.0343 17.5112 10.1179C17.3206 10.1028 17.1619 9.97504 17.1263 9.78693C17.0588 8.48643 16.7414 7.13717 16.668 5.84713C16.6633 5.7554 16.6479 5.56961 16.6739 5.4953C16.7403 5.30371 17.8204 5.39079 18.0608 5.37686C18.4812 5.35364 18.9075 5.24565 19.3078 5.20965V5.20849Z" fill="black"/>
<path d="M26.9786 8.39005L27.0319 8.61416L26.8554 8.75814C26.0051 8.94857 25.0564 9.53844 24.2428 9.73467C23.9444 9.80666 23.8034 9.79621 23.5879 9.58721C22.6937 8.7175 21.6835 7.21729 21.0914 6.12232C21.0097 5.97137 20.6532 5.32576 20.6473 5.21894C20.633 4.9658 20.999 4.99716 21.1553 4.96116C21.4846 4.88452 21.8138 4.80905 22.1395 4.71616C22.3254 4.66274 22.747 4.4607 22.8678 4.44445C22.9294 4.43632 23.0253 4.45838 23.0775 4.48973C23.1402 4.52689 23.7928 5.49529 23.9325 5.66714C24.784 6.70986 25.844 7.65272 26.9786 8.39121V8.39005Z" fill="black"/>
<path d="M12.3595 5.25024C12.8734 5.29553 13.3862 5.3919 13.9026 5.42093C14.1406 5.43371 14.9649 5.37217 15.0928 5.46274C15.1331 5.4906 15.1603 5.55679 15.1852 5.59975L14.7896 9.87513C14.747 10.1016 14.58 10.177 14.3586 10.1724C13.873 10.1619 13.2666 10.0272 12.7597 9.99008C12.2529 9.95293 11.5624 10.011 11.1183 9.94248C10.93 9.91345 10.827 9.76946 10.8826 9.586C11.2486 8.49684 11.6477 7.4158 11.9828 6.31735C12.0681 6.03635 12.1143 5.66362 12.1996 5.41048C12.2233 5.33965 12.2919 5.28276 12.3583 5.25141L12.3595 5.25024Z" fill="black"/>
<path d="M5.05938 11.3197C4.41985 14.471 3.06145 18.0741 2.99986 18.4236C2.93828 18.7731 4.85568 19.3096 5.05938 18.772C5.26308 18.2343 6.7861 13.8788 6.86663 12.8048C6.94716 11.7307 6.86663 11.0746 6.86663 11.0746C6.86663 11.0746 5.17899 10.7309 5.05938 11.3208V11.3197Z" fill="black"/>
<path d="M26.9418 11.3197C27.5813 14.471 28.9397 18.0741 29.0013 18.4236C29.0629 18.7731 27.1455 19.3096 26.9418 18.772C26.7381 18.2343 25.2151 13.8788 25.1345 12.8048C25.054 11.7307 25.1345 11.0746 25.1345 11.0746C25.1345 11.0746 26.8222 10.7309 26.9418 11.3208V11.3197Z" fill="black"/>
</svg>
