<svg width="28" height="28" viewBox="0 0 28 28" fill="none" xmlns="http://www.w3.org/2000/svg">
<path d="M26.2512 14.272C26.2512 13.2648 26.1678 12.5298 25.9873 11.7676H14.2512V16.3136H21.1401C21.0012 17.4434 20.2512 19.1448 18.5845 20.2881L18.5611 20.4403L22.2719 23.2575L22.529 23.2826C24.8901 21.1457 26.2512 18.0014 26.2512 14.272Z" fill="#4285F4"/>
<path d="M14.2505 26.2499C17.6255 26.2499 20.4587 25.161 22.5283 23.2827L18.5838 20.2881C17.5283 21.0095 16.1116 21.5131 14.2505 21.5131C10.945 21.5131 8.13947 19.3763 7.13938 16.4226L6.99279 16.4348L3.13432 19.3612L3.08386 19.4987C5.13939 23.5004 9.36163 26.2499 14.2505 26.2499Z" fill="#34A853"/>
<path d="M7.14012 16.4227C6.87624 15.6605 6.72351 14.8438 6.72351 14C6.72351 13.156 6.87624 12.3394 7.12623 11.5772L7.11924 11.4148L3.21241 8.44141L3.08459 8.50099C2.23741 10.1616 1.75128 12.0263 1.75128 14C1.75128 15.9735 2.23741 17.8382 3.08459 19.4988L7.14012 16.4227Z" fill="#FBBC05"/>
<path d="M14.2506 6.48664C16.5978 6.48664 18.1811 7.48024 19.0839 8.31058L22.6117 4.935C20.4451 2.96139 17.6256 1.75 14.2506 1.75C9.36163 1.75 5.1394 4.49943 3.08386 8.50105L7.12552 11.5772C8.13951 8.62361 10.945 6.48664 14.2506 6.48664Z" fill="#EB4335"/>
</svg>
