<svg width="22" height="22" viewBox="0 0 22 22" fill="none" xmlns="http://www.w3.org/2000/svg">
<path d="M10.895 4.08496C14.6555 4.08516 17.7036 7.13403 17.7036 10.8945C17.7036 14.655 14.6555 17.7039 10.895 17.7041C7.1344 17.7041 4.08545 14.6552 4.08545 10.8945C4.08545 7.13391 7.1344 4.08496 10.895 4.08496ZM8.73389 8.1709C8.42323 8.1709 8.17139 8.42274 8.17139 8.7334V13.0557C8.17147 13.3663 8.42328 13.6182 8.73389 13.6182H13.0562C13.3666 13.618 13.6186 13.3662 13.6187 13.0557V8.7334C13.6187 8.42284 13.3667 8.17106 13.0562 8.1709H8.73389Z" fill="white"/>
<circle cx="10.8947" cy="10.8947" r="10.051" stroke="white" stroke-width="1.6875"/>
</svg>
