<svg width="22" height="22" viewBox="0 0 22 22" fill="none" xmlns="http://www.w3.org/2000/svg">
<circle cx="10.8947" cy="10.8947" r="10.051" stroke="#C62827" stroke-width="1.6875"/>
<path d="M10.8951 4.08496C14.6556 4.08516 17.7037 7.13403 17.7037 10.8945C17.7037 14.655 14.6556 17.7039 10.8951 17.7041C7.13447 17.7041 4.08553 14.6552 4.08553 10.8945C4.08553 7.13391 7.13447 4.08496 10.8951 4.08496ZM8.73396 8.1709C8.4233 8.1709 8.17146 8.42274 8.17146 8.7334V13.0557C8.17155 13.3663 8.42335 13.6182 8.73396 13.6182H13.0562C13.3667 13.618 13.6186 13.3662 13.6187 13.0557V8.7334C13.6187 8.42284 13.3667 8.17106 13.0562 8.1709H8.73396Z" fill="#C62827"/>
</svg>
