<svg width="27" height="27" viewBox="0 0 27 27" fill="none" xmlns="http://www.w3.org/2000/svg">
<mask id="mask0_150_2946" style="mask-type:alpha" maskUnits="userSpaceOnUse" x="0" y="0" width="27" height="27">
<rect width="26.8594" height="26.8594" fill="#D9D9D9"/>
</mask>
<g mask="url(#mask0_150_2946)">
<path d="M10.2961 17.9062L13.4297 15.5561L16.5073 17.9062L15.3322 14.1012L18.4658 11.6391H14.6607L13.4297 7.83398L12.1986 11.6391H8.39355L11.4712 14.1012L10.2961 17.9062ZM4.47656 22.3828C3.86104 22.3828 3.33411 22.1636 2.89578 21.7253C2.45745 21.287 2.23828 20.7601 2.23828 20.1445V16.3674C2.23828 16.1623 2.30356 15.9851 2.43413 15.8358C2.5647 15.6866 2.73257 15.5934 2.93774 15.5561C3.3854 15.4068 3.75378 15.1364 4.0429 14.7447C4.33201 14.353 4.47656 13.9146 4.47656 13.4297C4.47656 12.9447 4.33201 12.5064 4.0429 12.1147C3.75378 11.723 3.3854 11.4525 2.93774 11.3033C2.73257 11.266 2.5647 11.1728 2.43413 11.0235C2.30356 10.8743 2.23828 10.6971 2.23828 10.4919V6.71484C2.23828 6.09932 2.45745 5.57239 2.89578 5.13406C3.33411 4.69573 3.86104 4.47656 4.47656 4.47656H22.3828C22.9983 4.47656 23.5253 4.69573 23.9636 5.13406C24.4019 5.57239 24.6211 6.09932 24.6211 6.71484V10.4919C24.6211 10.6971 24.5558 10.8743 24.4252 11.0235C24.2947 11.1728 24.1268 11.266 23.9216 11.3033C23.474 11.4525 23.1056 11.723 22.8165 12.1147C22.5274 12.5064 22.3828 12.9447 22.3828 13.4297C22.3828 13.9146 22.5274 14.353 22.8165 14.7447C23.1056 15.1364 23.474 15.4068 23.9216 15.5561C24.1268 15.5934 24.2947 15.6866 24.4252 15.8358C24.5558 15.9851 24.6211 16.1623 24.6211 16.3674V20.1445C24.6211 20.7601 24.4019 21.287 23.9636 21.7253C23.5253 22.1636 22.9983 22.3828 22.3828 22.3828H4.47656Z" fill="#C62827"/>
</g>
</svg>
