<svg width="76" height="39" viewBox="0 0 76 39" fill="none" xmlns="http://www.w3.org/2000/svg">
<g clip-path="url(#clip0_51_26)">
<path d="M30.063 24.4403C30.181 24.6621 30.2401 24.9181 30.2401 25.2084C30.2401 25.4807 30.113 25.6015 29.859 25.5672C29.385 25.551 28.8054 25.5456 28.1203 25.5546C27.4352 25.5636 26.7018 25.5852 25.9236 25.6177C25.1455 25.6519 24.362 25.6898 23.5749 25.7331C22.7878 25.7764 22.0562 25.8232 21.3782 25.8737C21.0741 26.1298 20.7271 26.3389 20.3371 26.5012C19.9472 26.6635 19.5661 26.7608 19.1941 26.7951L18.94 26.5391C18.974 25.9242 18.983 25.2589 18.9651 24.5431C18.9472 23.8273 18.9222 22.8879 18.8882 21.7285C18.8703 21.3354 18.8542 20.9857 18.8381 20.6791C18.8202 20.3726 18.8041 20.0733 18.788 19.783C18.7701 19.4927 18.7504 19.1952 18.7254 18.8869C18.7003 18.5804 18.6628 18.2306 18.6109 17.8375C18.5769 17.531 18.5179 17.2443 18.4338 16.9811C18.3497 16.716 18.1887 16.4997 17.9508 16.3284C17.7809 16.2094 17.7397 16.0561 17.8238 15.8686C17.8918 15.663 18.0349 15.5783 18.2549 15.6126C18.5429 15.6468 18.89 15.6973 19.296 15.7658C19.7021 15.8343 20.0652 15.9119 20.3872 15.9966L20.7181 16.0741C21.4462 16.1084 22.1689 16.0994 22.8898 16.0489C23.6089 15.9984 24.3745 15.9047 25.1884 15.7676C25.3566 15.7514 25.514 15.6991 25.6589 15.6144C25.802 15.5296 25.9415 15.4485 26.0775 15.371C26.2134 15.2934 26.3565 15.2303 26.5086 15.1798C26.6606 15.1293 26.8306 15.1293 27.0166 15.1798C27.2026 15.2483 27.4352 15.3511 27.7142 15.4863C27.9933 15.6234 28.2777 15.7857 28.5639 15.9732C28.6659 16.0579 28.8 16.1517 28.97 16.2544C29.1381 16.3572 29.3009 16.4762 29.453 16.6133C29.605 16.7503 29.732 16.8945 29.834 17.0478C29.936 17.201 29.9771 17.3543 29.961 17.5076C29.9431 17.6446 29.8716 17.8357 29.7445 18.0827C29.6175 18.3298 29.546 18.5984 29.5281 18.8887C29.4941 19.5378 29.4476 20.1562 29.3886 20.744C29.3295 21.3318 29.258 21.8241 29.1721 22.2153C29.0881 22.4371 28.9432 22.6931 28.741 22.9834H28.7661C29.156 22.9492 29.4351 23.1114 29.6032 23.4703L30.0594 24.4421L30.063 24.4403ZM22.244 23.3657C22.854 23.3657 23.4407 23.3531 24.0078 23.3278C24.5748 23.3026 25.1455 23.2719 25.7215 23.2377C25.8234 22.8121 25.9075 22.3596 25.9755 21.8818C26.0435 21.404 26.09 20.9316 26.115 20.461C26.1401 19.9922 26.1526 19.5486 26.1526 19.1303C26.1526 18.712 26.1347 18.3496 26.1025 18.0431C25.5605 18.0936 24.9684 18.1711 24.3244 18.2739C23.6804 18.3766 22.9792 18.4956 22.2172 18.6327C22.1993 18.8725 22.1957 19.1411 22.2047 19.4386C22.2136 19.7379 22.2172 20.1004 22.2172 20.5259L22.2422 23.3657H22.244ZM31.0289 26.9231C31.2651 27.0601 31.469 27.2477 31.6389 27.4857C31.8071 27.7255 31.909 27.9725 31.943 28.2285C32.6371 28.178 33.3222 28.2195 34.0002 28.3565C34.6763 28.4936 35.2828 28.728 35.8158 29.0597C36.3489 29.3933 36.78 29.8242 37.1109 30.3525C37.4419 30.8808 37.6064 31.5137 37.6064 32.2457C37.6064 33.0643 37.4329 33.7765 37.0859 34.3823C36.7389 34.9881 36.2809 35.4948 35.7156 35.9059C35.1486 36.3152 34.501 36.6217 33.773 36.8273C33.0449 37.0328 32.2918 37.1338 31.5137 37.1338C30.7356 37.1338 29.9735 37.031 29.2294 36.8273C28.4834 36.6217 27.8198 36.3152 27.2366 35.9059C26.6535 35.4966 26.183 34.9881 25.827 34.3823C25.471 33.7765 25.294 33.0643 25.294 32.2457C25.294 31.5804 25.412 30.9926 25.6499 30.4805C25.8861 29.9685 26.208 29.5249 26.6141 29.1499C27.0202 28.7748 27.4942 28.4683 28.0362 28.2285C28.5782 27.9905 29.1453 27.8102 29.7374 27.6912C29.9234 27.6569 30.1005 27.5668 30.2705 27.4225C30.4386 27.2783 30.5245 27.1106 30.5245 26.9231H31.0325H31.0289ZM34.1254 32.2457C34.1254 31.5804 33.841 31.0088 33.2757 30.531C32.7086 30.0532 31.9591 29.7881 31.0289 29.7377C30.893 29.8404 30.7409 29.9378 30.5728 30.0316C30.4028 30.1253 30.2418 30.2227 30.0898 30.3255C29.7517 30.5292 29.4637 30.7943 29.2258 31.1188C28.9879 31.4433 28.8698 31.8184 28.8698 32.2457C28.8698 32.9795 29.1024 33.6052 29.5675 34.1263C30.0325 34.6474 30.6801 34.907 31.5101 34.907C32.3401 34.907 32.9823 34.6474 33.4403 34.1263C33.8964 33.6052 34.1254 32.9795 34.1254 32.2457ZM30.19 17.5562C31.1541 17.6248 31.9627 17.6626 32.6138 17.6716C33.265 17.6807 33.8875 17.668 34.4796 17.6338V16.213C34.4796 15.7442 34.4706 15.3385 34.4545 14.9977C34.4205 14.6912 34.3651 14.3757 34.29 14.0511C34.213 13.7266 34.0574 13.4705 33.8195 13.283C33.6335 13.164 33.5816 13.0108 33.6674 12.8232C33.7354 12.6177 33.8875 12.5329 34.1236 12.5672C34.4456 12.6015 34.8177 12.6664 35.2416 12.7583C35.6638 12.8521 36.0376 12.9585 36.3596 13.0775C36.6136 13.1622 36.8498 13.2524 37.0698 13.3461C37.2898 13.4399 37.5188 13.5372 37.7549 13.64C38.0429 13.7771 38.22 13.9123 38.288 14.0493C38.356 14.1863 38.3291 14.3991 38.2111 14.6894C38.1431 14.8264 38.0966 14.9581 38.0715 15.0861C38.0465 15.2141 38.0161 15.3457 37.9821 15.4827C37.9481 15.654 37.9231 15.8506 37.9052 16.0705C37.8873 16.2923 37.8748 16.5231 37.8676 16.7611C37.8587 17.0009 37.8551 17.2353 37.8551 17.4643V24.3862C37.8551 24.8298 37.7567 25.239 37.5635 25.6141C37.3685 25.9891 37.1056 26.3173 36.7764 26.5986C36.4473 26.8798 36.0734 27.1142 35.6584 27.3017C35.2434 27.4893 34.8087 27.6083 34.3508 27.6605L34.1468 27.482C34.2989 27.1918 34.3919 26.8726 34.4259 26.5228C34.4599 26.173 34.476 25.8106 34.476 25.4356V23.6704L33.5869 23.8759C33.095 23.9949 32.6514 24.0725 32.2543 24.1067C31.8572 24.141 31.4636 23.9877 31.0736 23.647C30.7695 23.3567 30.5316 23.0285 30.3635 22.6625C30.1935 22.2965 30.1005 21.9845 30.0844 21.7285C30.5925 21.7123 31.045 21.6906 31.4421 21.6636C31.8393 21.6384 32.2113 21.6077 32.5602 21.5734C32.9072 21.5392 33.2363 21.5013 33.5512 21.4581C33.8642 21.4148 34.1737 21.3679 34.4778 21.3174V19.9363C34.3418 19.9705 34.1934 19.9922 34.0341 19.9994C33.8732 20.0084 33.6907 20.03 33.4886 20.0625C32.9966 20.131 32.5441 20.1617 32.1308 20.1526C31.7158 20.1436 31.3402 19.9525 31.0003 19.5775C30.7123 19.2529 30.5048 18.8995 30.3778 18.5155C30.2508 18.1314 30.1882 17.8123 30.1882 17.5562H30.19Z" fill="#C62827"/>
<path d="M48.9941 19.7542C48.6721 19.7542 48.368 19.7632 48.08 19.7795C47.792 19.7975 47.4879 19.8227 47.1659 19.857L46.4808 19.9345C46.4629 19.9688 46.4557 20.0283 46.4557 20.113C46.3878 20.6413 46.3538 21.3535 46.3538 22.2496C46.3538 23.1458 46.3699 24.1392 46.4039 25.2319C47.724 25.1471 49.1837 24.9506 50.7829 24.6441C52.3821 24.3376 54.0457 23.8003 55.7719 23.0322L55.949 23.263C55.8471 23.6903 55.6396 24.1465 55.3265 24.6315C55.0135 25.1183 54.679 25.524 54.323 25.8467C53.8311 26.0865 53.2783 26.3155 52.6594 26.5373C52.0404 26.7591 51.3947 26.9646 50.7167 27.1521C50.0387 27.3397 49.3501 27.5109 48.647 27.6642C47.944 27.8175 47.2553 27.9455 46.5774 28.0483C46.2894 28.0987 46.0354 28.1853 45.8153 28.3043C45.5953 28.4233 45.4003 28.4918 45.2322 28.5098C45.0622 28.5279 44.8762 28.4593 44.6741 28.3043C44.4701 28.151 44.2626 27.9545 44.0516 27.7165C43.8405 27.4785 43.6365 27.2225 43.4416 26.9484C43.2466 26.6761 43.0641 26.4201 42.896 26.1803C42.6581 25.8557 42.6241 25.5835 42.794 25.3617C42.9121 25.1904 42.9711 24.9867 42.9711 24.7469L42.9961 23.775L42.9711 20.3961C42.7851 20.2248 42.6026 20.0175 42.4255 19.7686C42.2484 19.5216 42.0749 19.2656 41.905 19.0005C41.735 18.7355 41.5883 18.4849 41.4613 18.2451C41.3343 18.0071 41.2288 17.8105 41.1447 17.6573C42.4649 17.7763 43.717 17.8286 44.903 17.8105C46.0872 17.7943 47.2142 17.7258 48.2803 17.605C49.2445 17.5022 50.0155 17.3489 50.5915 17.1452C50.8115 17.0605 51.0226 16.9883 51.2265 16.927C51.4305 16.8675 51.6237 16.8369 51.8097 16.8369C52.0977 16.8369 52.3463 16.909 52.5592 17.0551C52.7703 17.2011 52.9438 17.367 53.0798 17.5545C53.1638 17.6915 53.2658 17.8574 53.3839 18.0539C53.5019 18.2505 53.6039 18.4344 53.688 18.6039C53.9581 19.1502 54.0135 19.5505 53.8525 19.8065C53.6915 20.0625 53.3749 20.1473 52.9009 20.0625C52.5628 19.994 52.2283 19.9471 51.8973 19.9219C51.5664 19.8967 51.2337 19.866 50.8938 19.8318C50.4877 19.7975 50.1693 19.7759 49.9422 19.7686C49.7132 19.7596 49.3966 19.756 48.9905 19.756L48.9941 19.7542ZM52.1102 28.7893C52.3463 28.9263 52.5503 29.1139 52.7202 29.3519C52.8883 29.5917 52.9903 29.8387 53.0243 30.0947C53.7184 30.0442 54.4035 30.0857 55.0815 30.2227C55.7576 30.3598 56.364 30.5942 56.8971 30.9259C57.4302 31.2595 57.8613 31.6904 58.1922 32.2187C58.5231 32.747 58.6877 33.3799 58.6877 34.1119C58.6877 34.9305 58.5142 35.6427 58.1672 36.2485C57.8201 36.8544 57.3622 37.361 56.7951 37.7721C56.2281 38.1814 55.5805 38.4879 54.8525 38.6935C54.1244 38.899 53.3713 39 52.5932 39C51.8151 39 51.053 38.8972 50.3089 38.6935C49.5629 38.4879 48.8993 38.1814 48.3161 37.7721C47.733 37.3628 47.2625 36.8544 46.9065 36.2485C46.5505 35.6427 46.3734 34.9305 46.3734 34.1119C46.3734 33.4466 46.4915 32.8588 46.7294 32.3467C46.9656 31.8347 47.2875 31.3911 47.6936 31.0161C48.0997 30.641 48.5737 30.3345 49.1157 30.0947C49.6577 29.8567 50.2248 29.6764 50.8169 29.5574C51.0029 29.5231 51.18 29.433 51.35 29.2888C51.5181 29.1445 51.604 28.9768 51.604 28.7893H52.112H52.1102ZM55.2085 34.1119C55.2085 33.4466 54.924 32.875 54.3588 32.3972C53.7917 31.9194 53.0422 31.6544 52.112 31.6039C51.976 31.7066 51.824 31.804 51.6558 31.8978C51.4859 31.9915 51.3249 32.0889 51.1729 32.1917C50.8348 32.3954 50.5468 32.6605 50.3089 32.985C50.0709 33.3096 49.9529 33.6846 49.9529 34.1119C49.9529 34.8458 50.1854 35.4714 50.6505 35.9925C51.1156 36.5136 51.7632 36.7732 52.5932 36.7732C53.4232 36.7732 54.0654 36.5136 54.5233 35.9925C54.9795 35.4714 55.2085 34.8458 55.2085 34.1119ZM55.2335 29.3519C55.3855 29.0616 55.4786 28.7424 55.5126 28.3926C55.5465 28.0428 55.5626 27.6804 55.5626 27.3054V19.9598C55.5626 19.4477 55.5662 18.9014 55.5752 18.3226C55.5841 17.742 55.5716 17.257 55.5376 16.8639C55.5036 16.5574 55.4482 16.2419 55.373 15.9173C55.2961 15.5928 55.1405 15.3367 54.9026 15.1492C54.7165 15.0302 54.6647 14.877 54.7505 14.6894C54.8185 14.4839 54.9705 14.3992 55.2067 14.4334C55.5287 14.4677 55.9007 14.5326 56.3247 14.6245C56.7468 14.7183 57.1207 14.8247 57.4427 14.9437C57.6967 15.0284 57.9328 15.1186 58.1529 15.2123C58.3729 15.3061 58.6019 15.4035 58.838 15.5062C59.126 15.6433 59.3031 15.7785 59.371 15.9155C59.439 16.0526 59.414 16.2653 59.2941 16.5556C59.2262 16.6926 59.1796 16.8243 59.1546 16.9523C59.1296 17.0803 59.0991 17.2119 59.0652 17.3489C59.0312 17.5202 59.0061 17.7168 58.9882 17.9367C58.9704 18.1585 58.9632 18.3893 58.9632 18.6273V21.3661C59.3013 21.3319 59.6143 21.2886 59.9023 21.2381C60.1903 21.1876 60.4193 21.1354 60.5875 21.0849C60.8236 21.0001 61.0579 20.9226 61.2851 20.8541C61.5141 20.7856 61.7377 20.7513 61.9577 20.7513C62.1437 20.7513 62.3262 20.8198 62.5033 20.9551C62.6804 21.0921 62.8288 21.2544 62.9469 21.4419C63.065 21.6132 63.1759 21.8133 63.2761 22.0423C63.378 22.2731 63.471 22.5237 63.5551 22.7978C63.6911 23.2575 63.6732 23.5695 63.505 23.7317C63.3351 23.894 62.997 23.9319 62.489 23.8471C62.3029 23.8129 62.0954 23.7876 61.8665 23.7696C61.6375 23.7534 61.43 23.7444 61.2439 23.7444H58.9596V26.2524C58.9596 26.696 58.8577 27.1053 58.6555 27.4803C58.4516 27.8553 58.1851 28.1835 57.8559 28.4648C57.5268 28.746 57.1493 28.9804 56.7254 29.168C56.3014 29.3555 55.8703 29.4745 55.4303 29.5268L55.2263 29.3483L55.2335 29.3519Z" fill="#C62827"/>
<path d="M58.4089 0.896274C58.6236 1.51111 58.1674 2.72277 58.1155 3.43136C58.0207 4.7512 58.1728 5.13525 58.9885 6.15397C61.1601 8.86216 70.4745 13.7232 73.952 14.4769C75.6514 14.8447 75.8177 14.4913 75.9644 14.9258C76.3508 16.069 73.4493 18.8907 72.3939 18.5608C71.3081 18.2218 65.1313 15.3441 64.0759 14.7581C60.534 12.791 57.5252 10.5029 55.0656 7.36562C54.6416 6.82651 54.7364 6.37935 53.8206 6.54704C52.9172 6.71112 51.7187 7.20335 50.742 7.43594C48.8154 7.89392 46.8137 8.21847 44.8353 8.4132C38.0145 9.08754 31.0256 8.57006 24.4928 6.59392C23.9168 6.41902 23.3247 7.29891 23.0367 7.67214C22.5126 8.34829 22.0045 8.91985 21.3641 9.50044C20.0279 10.7157 18.6254 11.8534 17.1622 12.91C13.3001 15.7029 9.02482 17.7873 4.65293 19.6318C4.36314 19.7544 3.87479 19.6913 3.59216 19.5506C2.7532 19.1287 1.33287 18.0739 0.862414 17.6448C0.406263 17.2301 -0.0910298 16.7757 0.0109332 16.4115C0.143306 15.9337 -0.203726 16.2475 1.47061 15.8346C4.96419 14.9727 18.4931 9.45897 20.0154 5.21458C20.5323 3.77214 19.8383 1.68601 20.3427 0.75203C20.6003 0.274221 21.8292 -0.218012 22.2872 0.0975221C22.4678 0.221933 22.4267 0.461738 22.5358 0.642044C23.4696 2.19267 27.3227 3.05813 29.0919 3.43136C34.7893 4.63039 41.0627 4.7512 46.828 3.89295C49.1124 3.55397 54.9278 2.44329 56.1246 0.499603C56.2623 0.274221 58.2014 0.299464 58.4089 0.896274Z" fill="#C62827"/>
</g>
<defs>
<clipPath id="clip0_51_26">
<rect width="76" height="39" fill="white"/>
</clipPath>
</defs>
</svg>
