<svg width="68" height="68" viewBox="0 0 68 68" fill="none" xmlns="http://www.w3.org/2000/svg">
<g filter="url(#filter0_d_103_1578)">
<circle cx="34" cy="34" r="30" fill="white"/>
<path d="M33.9821 39.6336C34.0905 39.6127 34.2504 39.6162 34.3214 39.7468C34.3658 40.1004 33.7956 40.1422 33.6997 39.9819C33.6037 39.8217 33.8968 39.6493 33.9821 39.6336Z" fill="#C62827"/>
<path d="M46.7707 20.515C47.2362 20.4192 48.0178 20.7971 48.1741 21.2587C48.3305 21.7202 47.9929 22.673 47.9539 23.2234C47.8828 24.2458 47.9965 24.5453 48.6094 25.3326C50.2402 27.4314 54.1608 29.7653 56.7491 30.4533C57.1986 30.5735 58.2769 30.5073 57.934 31.1273C57.7546 31.4496 56.3672 33.261 56.106 33.5013C55.9142 33.6772 55.8254 33.6981 55.5784 33.618C54.763 33.355 53.2211 32.4545 52.4288 32.0017C49.7676 30.4777 47.5098 28.7046 45.6622 26.2731C45.3442 25.8551 45.4153 25.5085 44.7278 25.6374C44.0492 25.7645 43.1485 26.146 42.4166 26.3271C40.9706 26.6824 39.4659 26.9332 37.9808 27.0848C32.8593 27.6073 27.6098 27.2067 22.705 25.6757C22.3622 25.7088 22.0175 26.4543 21.8008 26.7434C19.9924 29.147 17.6581 30.8574 15.036 32.3396C14.3681 32.7175 13.1068 33.463 12.4193 33.6772C12.1848 33.7504 12.0693 33.6651 11.9024 33.5083C11.6661 33.0258 10.0424 31.3799 10.0015 31.0072C9.9589 30.6031 10.7974 30.6362 11.0976 30.5595C13.6291 29.9168 18.4824 27.0465 19.6371 24.6882C20.1558 23.6292 19.2107 21.8718 19.5891 21.1472C19.7827 20.778 20.7047 20.3965 21.0494 20.6386C21.1844 20.7344 21.1542 20.9208 21.2359 21.0601C21.9358 22.2619 24.8297 22.9325 26.1585 23.2216C30.4362 24.1517 35.1474 24.244 39.4766 23.5787C41.1927 23.3157 45.5592 22.4553 46.4581 20.9487C46.5611 20.7745 46.4492 20.5777 46.769 20.5115L46.7707 20.515Z" fill="#C62827"/>
<path d="M17.477 33.6529C17.3509 33.524 17.3899 33.3324 17.4965 33.2035C17.6973 32.9632 18.4825 32.5086 18.7916 32.256C20.4526 30.9079 21.7494 29.4797 22.9272 27.7101C23.0249 27.5621 22.9911 27.407 23.1865 27.2921C23.4885 27.1162 24.0837 27.4941 24.4318 27.6004C24.7107 27.6857 24.9968 27.7711 25.281 27.8425C25.5652 27.9139 26.7235 28.0532 26.8123 28.2222C26.9473 28.4852 26.4392 29.4257 26.29 29.727C25.2934 31.7231 23.9025 33.5379 22.4173 35.203C22.2059 35.3215 21.9448 35.3006 21.7192 35.2327L17.477 33.6494V33.6529Z" fill="#C62827"/>
<path d="M38.9634 28.3132C39.6989 28.247 39.5923 28.9123 39.7824 29.4906C40.3597 31.241 41.0152 32.9619 41.6903 34.6775C41.7809 34.9753 41.6565 35.2313 41.3385 35.2818C40.612 35.3951 39.475 35.2923 38.6703 35.3533C37.8656 35.4142 37.0626 35.5518 36.2685 35.6772C35.9825 35.6546 35.7445 35.463 35.6912 35.1808C35.5899 33.2301 35.1138 31.2062 35.0037 29.2711C34.9966 29.1335 34.9735 28.8548 35.0126 28.7434C35.112 28.456 36.7322 28.5866 37.0928 28.5657C37.7234 28.5309 38.363 28.3689 38.9634 28.3149V28.3132Z" fill="#C62827"/>
<path d="M50.4695 33.085L50.5494 33.4212L50.2847 33.6371C49.0092 33.9228 47.5863 34.8076 46.3659 35.1019C45.9182 35.2099 45.7068 35.1943 45.3835 34.8807C44.0423 33.5762 42.5269 31.3259 41.6387 29.6834C41.5161 29.457 40.9814 28.4886 40.9725 28.3283C40.9512 27.9486 41.5001 27.9957 41.7346 27.9417C42.2285 27.8267 42.7223 27.7135 43.2109 27.5742C43.4898 27.4941 44.1222 27.191 44.3034 27.1666C44.3958 27.1544 44.5397 27.1875 44.6178 27.2345C44.712 27.2903 45.6908 28.7429 45.9004 29.0007C47.1777 30.5647 48.7676 31.979 50.4695 33.0868V33.085Z" fill="#C62827"/>
<path d="M28.5408 28.375C29.3118 28.4429 30.081 28.5875 30.8555 28.631C31.2126 28.6502 32.449 28.5579 32.6409 28.6937C32.7013 28.7355 32.7421 28.8348 32.7794 28.8993L32.1861 35.3123C32.1221 35.652 31.8717 35.7652 31.5395 35.7582C30.8111 35.7425 29.9016 35.5405 29.1412 35.4848C28.3809 35.429 27.3452 35.5161 26.6791 35.4133C26.3966 35.3698 26.2421 35.1538 26.3255 34.8786C26.8745 33.2449 27.4731 31.6233 27.9759 29.9757C28.1038 29.5542 28.1731 28.9951 28.301 28.6154C28.3365 28.5091 28.4395 28.4238 28.539 28.3767L28.5408 28.375Z" fill="#C62827"/>
<path d="M17.5907 37.4797C16.6315 42.2068 14.5939 47.6114 14.5015 48.1357C14.4091 48.6599 17.2852 49.4646 17.5907 48.6582C17.8963 47.8517 20.1808 41.3185 20.3016 39.7074C20.4224 38.0963 20.3016 37.1122 20.3016 37.1122C20.3016 37.1122 17.7702 36.5967 17.5907 37.4815V37.4797Z" fill="#C62827"/>
<path d="M50.4144 37.4797C51.3737 42.2068 53.4113 47.6114 53.5037 48.1357C53.5961 48.6599 50.72 49.4646 50.4144 48.6582C50.1089 47.8517 47.8243 41.3185 47.7035 39.7074C47.5827 38.0963 47.7035 37.1122 47.7035 37.1122C47.7035 37.1122 50.235 36.5967 50.4144 37.4815V37.4797Z" fill="#C62827"/>
</g>
<defs>
<filter id="filter0_d_103_1578" x="0" y="0" width="68" height="68" filterUnits="userSpaceOnUse" color-interpolation-filters="sRGB">
<feFlood flood-opacity="0" result="BackgroundImageFix"/>
<feColorMatrix in="SourceAlpha" type="matrix" values="0 0 0 0 0 0 0 0 0 0 0 0 0 0 0 0 0 0 127 0" result="hardAlpha"/>
<feOffset/>
<feGaussianBlur stdDeviation="2"/>
<feComposite in2="hardAlpha" operator="out"/>
<feColorMatrix type="matrix" values="0 0 0 0 0 0 0 0 0 0 0 0 0 0 0 0 0 0 0.3 0"/>
<feBlend mode="normal" in2="BackgroundImageFix" result="effect1_dropShadow_103_1578"/>
<feBlend mode="normal" in="SourceGraphic" in2="effect1_dropShadow_103_1578" result="shape"/>
</filter>
</defs>
</svg>
