<svg width="26" height="26" viewBox="0 0 26 26" fill="none" xmlns="http://www.w3.org/2000/svg">
<path d="M4.69733 19.723C5.83067 18.8821 7.06533 18.218 8.40133 17.7307C9.73711 17.2436 11.1589 17 12.6667 17C14.1744 17 15.5962 17.2436 16.932 17.7307C18.268 18.218 19.5027 18.8821 20.636 19.723C21.4649 18.8119 22.1217 17.7572 22.6063 16.559C23.091 15.3608 23.3333 14.0633 23.3333 12.6667C23.3333 9.71111 22.2944 7.19444 20.2167 5.11667C18.1389 3.03889 15.6222 2 12.6667 2C9.71111 2 7.19444 3.03889 5.11667 5.11667C3.03889 7.19444 2 9.71111 2 12.6667C2 14.0633 2.24233 15.3608 2.727 16.559C3.21167 17.7572 3.86844 18.8119 4.69733 19.723ZM9.58733 12.4127C8.75133 11.5769 8.33333 10.5504 8.33333 9.33333C8.33333 8.11622 8.75133 7.08978 9.58733 6.254C10.4231 5.418 11.4496 5 12.6667 5C13.8838 5 14.9102 5.418 15.746 6.254C16.582 7.08978 17 8.11622 17 9.33333C17 10.5504 16.582 11.5769 15.746 12.4127C14.9102 13.2487 13.8838 13.6667 12.6667 13.6667C11.4496 13.6667 10.4231 13.2487 9.58733 12.4127ZM12.6667 25.3333C10.9078 25.3333 9.25778 25.0026 7.71667 24.341C6.17556 23.6794 4.835 22.7786 3.695 21.6383C2.55478 20.4983 1.65389 19.1578 0.992334 17.6167C0.330778 16.0756 0 14.4256 0 12.6667C0 10.9078 0.330778 9.25778 0.992334 7.71667C1.65389 6.17556 2.55478 4.835 3.695 3.695C4.835 2.55478 6.17556 1.65389 7.71667 0.992334C9.25778 0.330778 10.9078 0 12.6667 0C14.4256 0 16.0756 0.330778 17.6167 0.992334C19.1578 1.65389 20.4983 2.55478 21.6383 3.695C22.7786 4.835 23.6794 6.17556 24.341 7.71667C25.0026 9.25778 25.3333 10.9078 25.3333 12.6667C25.3333 14.4256 25.0026 16.0756 24.341 17.6167C23.6794 19.1578 22.7786 20.4983 21.6383 21.6383C20.4983 22.7786 19.1578 23.6794 17.6167 24.341C16.0756 25.0026 14.4256 25.3333 12.6667 25.3333ZM16.1473 22.7527C17.2644 22.3653 18.2563 21.8239 19.123 21.1283C18.2563 20.4581 17.2773 19.9359 16.186 19.5617C15.0944 19.1872 13.9213 19 12.6667 19C11.412 19 10.2368 19.185 9.141 19.555C8.04522 19.9252 7.06833 20.4497 6.21033 21.1283C7.077 21.8239 8.06889 22.3653 9.186 22.7527C10.3031 23.1398 11.4633 23.3333 12.6667 23.3333C13.87 23.3333 15.0302 23.1398 16.1473 22.7527ZM14.3307 10.9973C14.7769 10.5513 15 9.99667 15 9.33333C15 8.67 14.7769 8.11533 14.3307 7.66933C13.8847 7.22311 13.33 7 12.6667 7C12.0033 7 11.4487 7.22311 11.0027 7.66933C10.5564 8.11533 10.3333 8.67 10.3333 9.33333C10.3333 9.99667 10.5564 10.5513 11.0027 10.9973C11.4487 11.4436 12.0033 11.6667 12.6667 11.6667C13.33 11.6667 13.8847 11.4436 14.3307 10.9973Z" fill="black"/>
</svg>
