<svg width="40" height="40" viewBox="0 0 40 40" fill="none" xmlns="http://www.w3.org/2000/svg">
<mask id="mask0_150_2310" style="mask-type:alpha" maskUnits="userSpaceOnUse" x="0" y="0" width="40" height="40">
<rect width="40" height="40" fill="#D9D9D9"/>
</mask>
<g mask="url(#mask0_150_2310)">
<path d="M6.66683 35C5.75016 35 4.96544 34.6736 4.31266 34.0208C3.65989 33.3681 3.3335 32.5833 3.3335 31.6667V26.6667H36.6668V31.6667C36.6668 32.5833 36.3404 33.3681 35.6877 34.0208C35.0349 34.6736 34.2502 35 33.3335 35H6.66683ZM6.66683 30V31.6667H33.3335V30H6.66683ZM17.6252 23.3333C17.0418 23.8889 15.9724 24.1667 14.4168 24.1667C12.8613 24.1667 11.8057 23.8889 11.2502 23.3333C10.6946 22.7778 9.91683 22.5 8.91683 22.5C7.91683 22.5 7.12516 22.7778 6.54183 23.3333C5.9585 23.8889 4.88905 24.1667 3.3335 24.1667V20.8333C4.3335 20.8333 5.12516 20.5556 5.7085 20C6.29183 19.4444 7.36127 19.1667 8.91683 19.1667C10.4724 19.1667 11.5279 19.4444 12.0835 20C12.6391 20.5556 13.4168 20.8333 14.4168 20.8333C15.4168 20.8333 16.2085 20.5556 16.7918 20C17.3752 19.4444 18.4446 19.1667 20.0002 19.1667C21.5557 19.1667 22.6252 19.4444 23.2085 20C23.7918 20.5556 24.5835 20.8333 25.5835 20.8333C26.5835 20.8333 27.3613 20.5556 27.9168 20C28.4724 19.4444 29.5279 19.1667 31.0835 19.1667C32.639 19.1667 33.7363 19.4444 34.3752 20C35.0141 20.5556 35.7779 20.8333 36.6668 20.8333V24.1667C35.1113 24.1667 34.0696 23.8889 33.5418 23.3333C33.0141 22.7778 32.2502 22.5 31.2502 22.5C30.2502 22.5 29.4446 22.7778 28.8335 23.3333C28.2224 23.8889 27.1391 24.1667 25.5835 24.1667C24.0279 24.1667 22.9585 23.8889 22.3752 23.3333C21.7918 22.7778 21.0002 22.5 20.0002 22.5C19.0002 22.5 18.2085 22.7778 17.6252 23.3333ZM3.3335 16.6667V15C3.3335 11.8056 4.84044 9.34028 7.85433 7.60417C10.8682 5.86806 14.9168 5 20.0002 5C25.0835 5 29.1321 5.86806 32.146 7.60417C35.1599 9.34028 36.6668 11.8056 36.6668 15V16.6667H3.3335ZM20.0002 8.33333C16.5557 8.33333 13.6738 8.76389 11.3543 9.625C9.03488 10.4861 7.55572 11.7222 6.91683 13.3333H33.0835C32.4446 11.7222 30.9654 10.4861 28.646 9.625C26.3266 8.76389 23.4446 8.33333 20.0002 8.33333Z" fill="#C62827"/>
</g>
</svg>
