<svg width="40" height="40" viewBox="0 0 40 40" fill="none" xmlns="http://www.w3.org/2000/svg">
<mask id="mask0_150_2328" style="mask-type:alpha" maskUnits="userSpaceOnUse" x="0" y="0" width="40" height="40">
<rect width="40" height="40" fill="#D9D9D9"/>
</mask>
<g mask="url(#mask0_150_2328)">
<path d="M19.9999 36.6663C17.6944 36.6663 15.5277 36.2288 13.4999 35.3538C11.4721 34.4788 9.70825 33.2913 8.20825 31.7913C6.70825 30.2913 5.52075 28.5275 4.64575 26.4997C3.77075 24.4719 3.33325 22.3052 3.33325 19.9997H6.66659V6.66634L36.6666 3.33301V5.83301L17.4999 7.99967V10.833H36.6666V13.333H17.4999V19.9997H36.6666C36.6666 22.3052 36.2291 24.4719 35.3541 26.4997C34.4791 28.5275 33.2916 30.2913 31.7916 31.7913C30.2916 33.2913 28.5277 34.4788 26.4999 35.3538C24.4721 36.2288 22.3055 36.6663 19.9999 36.6663ZM9.16658 19.9997H10.8333V13.333H9.16658V19.9997ZM9.16658 10.833H10.8333V8.74967L9.16658 8.91634V10.833ZM13.3333 19.9997H14.9999V13.333H13.3333V19.9997ZM13.3333 10.833H14.9999V8.24967L13.3333 8.45801V10.833ZM7.70825 24.9997H32.2916C32.4027 24.7219 32.4999 24.4511 32.5833 24.1872C32.6666 23.9233 32.7499 23.6386 32.8333 23.333H7.12492C7.20825 23.6386 7.29853 23.9233 7.39575 24.1872C7.49297 24.4511 7.59714 24.7219 7.70825 24.9997ZM19.9999 33.333C22.0833 33.333 24.0138 32.8816 25.7916 31.9788C27.5694 31.0761 29.0833 29.8608 30.3333 28.333H9.66658C10.9166 29.8608 12.4305 31.0761 14.2083 31.9788C15.986 32.8816 17.9166 33.333 19.9999 33.333Z" fill="#ADB6BD"/>
</g>
</svg>
