<svg width="40" height="40" viewBox="0 0 40 40" fill="none" xmlns="http://www.w3.org/2000/svg">
<mask id="mask0_150_2322" style="mask-type:alpha" maskUnits="userSpaceOnUse" x="0" y="0" width="40" height="40">
<rect width="40" height="40" fill="#D9D9D9"/>
</mask>
<g mask="url(#mask0_150_2322)">
<path d="M10.4167 38.3337V31.667H9.16667C8 31.667 7.01389 31.2642 6.20833 30.4587C5.40278 29.6531 5 28.667 5 27.5003C5 26.3337 5.40278 25.3475 6.20833 24.542C7.01389 23.7364 8 23.3337 9.16667 23.3337H10.4167V21.667H5V13.3337H10.4167V11.667H9.16667C8 11.667 7.01389 11.2642 6.20833 10.4587C5.40278 9.6531 5 8.66699 5 7.50033C5 6.33366 5.40278 5.34755 6.20833 4.54199C7.01389 3.73644 8 3.33366 9.16667 3.33366H10.4167V1.66699H12.9167V3.33366H14.1667C15.3333 3.33366 16.3194 3.73644 17.125 4.54199C17.9306 5.34755 18.3333 6.33366 18.3333 7.50033C18.3333 8.66699 17.9306 9.6531 17.125 10.4587C16.3194 11.2642 15.3333 11.667 14.1667 11.667H12.9167V13.3337H18.3333V21.667H12.9167V23.3337H14.1667C15.3333 23.3337 16.3194 23.7364 17.125 24.542C17.9306 25.3475 18.3333 26.3337 18.3333 27.5003C18.3333 28.667 17.9306 29.6531 17.125 30.4587C16.3194 31.2642 15.3333 31.667 14.1667 31.667H12.9167V38.3337H10.4167ZM27.0833 38.3337V31.667H25.8333C24.6667 31.667 23.6806 31.2642 22.875 30.4587C22.0694 29.6531 21.6667 28.667 21.6667 27.5003C21.6667 26.3337 22.0694 25.3475 22.875 24.542C23.6806 23.7364 24.6667 23.3337 25.8333 23.3337H27.0833V21.667H21.6667V13.3337H27.0833V11.667H25.8333C24.6667 11.667 23.6806 11.2642 22.875 10.4587C22.0694 9.6531 21.6667 8.66699 21.6667 7.50033C21.6667 6.33366 22.0694 5.34755 22.875 4.54199C23.6806 3.73644 24.6667 3.33366 25.8333 3.33366H27.0833V1.66699H29.5833V3.33366H30.8333C32 3.33366 32.9861 3.73644 33.7917 4.54199C34.5972 5.34755 35 6.33366 35 7.50033C35 8.66699 34.5972 9.6531 33.7917 10.4587C32.9861 11.2642 32 11.667 30.8333 11.667H29.5833V13.3337H35V21.667H29.5833V23.3337H30.8333C32 23.3337 32.9861 23.7364 33.7917 24.542C34.5972 25.3475 35 26.3337 35 27.5003C35 28.667 34.5972 29.6531 33.7917 30.4587C32.9861 31.2642 32 31.667 30.8333 31.667H29.5833V38.3337H27.0833ZM9.16667 8.33366H14.1667C14.3889 8.33366 14.5833 8.25033 14.75 8.08366C14.9167 7.91699 15 7.72255 15 7.50033C15 7.2781 14.9167 7.08366 14.75 6.91699C14.5833 6.75033 14.3889 6.66699 14.1667 6.66699H9.16667C8.94444 6.66699 8.75 6.75033 8.58333 6.91699C8.41667 7.08366 8.33333 7.2781 8.33333 7.50033C8.33333 7.72255 8.41667 7.91699 8.58333 8.08366C8.75 8.25033 8.94444 8.33366 9.16667 8.33366ZM25.8333 8.33366H30.8333C31.0556 8.33366 31.25 8.25033 31.4167 8.08366C31.5833 7.91699 31.6667 7.72255 31.6667 7.50033C31.6667 7.2781 31.5833 7.08366 31.4167 6.91699C31.25 6.75033 31.0556 6.66699 30.8333 6.66699H25.8333C25.6111 6.66699 25.4167 6.75033 25.25 6.91699C25.0833 7.08366 25 7.2781 25 7.50033C25 7.72255 25.0833 7.91699 25.25 8.08366C25.4167 8.25033 25.6111 8.33366 25.8333 8.33366ZM8.33333 18.3337H15V16.667H8.33333V18.3337ZM25 18.3337H31.6667V16.667H25V18.3337ZM9.16667 28.3337H14.1667C14.3889 28.3337 14.5833 28.2503 14.75 28.0837C14.9167 27.917 15 27.7225 15 27.5003C15 27.2781 14.9167 27.0837 14.75 26.917C14.5833 26.7503 14.3889 26.667 14.1667 26.667H9.16667C8.94444 26.667 8.75 26.7503 8.58333 26.917C8.41667 27.0837 8.33333 27.2781 8.33333 27.5003C8.33333 27.7225 8.41667 27.917 8.58333 28.0837C8.75 28.2503 8.94444 28.3337 9.16667 28.3337ZM25.8333 28.3337H30.8333C31.0556 28.3337 31.25 28.2503 31.4167 28.0837C31.5833 27.917 31.6667 27.7225 31.6667 27.5003C31.6667 27.2781 31.5833 27.0837 31.4167 26.917C31.25 26.7503 31.0556 26.667 30.8333 26.667H25.8333C25.6111 26.667 25.4167 26.7503 25.25 26.917C25.0833 27.0837 25 27.2781 25 27.5003C25 27.7225 25.0833 27.917 25.25 28.0837C25.4167 28.2503 25.6111 28.3337 25.8333 28.3337Z" fill="#ADB6BD"/>
</g>
</svg>
