<svg width="40" height="40" viewBox="0 0 40 40" fill="none" xmlns="http://www.w3.org/2000/svg">
<mask id="mask0_150_2316" style="mask-type:alpha" maskUnits="userSpaceOnUse" x="0" y="0" width="40" height="40">
<rect width="40" height="40" fill="#D9D9D9"/>
</mask>
<g mask="url(#mask0_150_2316)">
<path d="M11.6668 35L9.12516 27.3333C8.12516 26.7778 7.27794 26.0417 6.5835 25.125C5.88905 24.2083 5.38905 23.1667 5.0835 22L3.3335 15H36.6668L34.9168 22C34.6113 23.1667 34.1113 24.2083 33.4168 25.125C32.7224 26.0417 31.8752 26.7778 30.8752 27.3333L28.3335 35H11.6668ZM14.0835 31.6667H25.9168L27.0418 28.3333H12.9585L14.0835 31.6667ZM13.1668 25H26.8335C28.0002 25 29.0279 24.6458 29.9168 23.9375C30.8057 23.2292 31.3891 22.3194 31.6668 21.2083L32.4168 18.3333H7.5835L8.3335 21.2083C8.61127 22.3194 9.19461 23.2292 10.0835 23.9375C10.9724 24.6458 12.0002 25 13.1668 25ZM33.3335 15H30.0002V12.9167C30.0002 12.3333 29.8057 11.8403 29.4168 11.4375C29.0279 11.0347 28.5557 10.8333 28.0002 10.8333C27.6946 10.8333 27.3891 10.9028 27.0835 11.0417C26.7779 11.1806 26.5002 11.3889 26.2502 11.6667H21.1252L20.7085 10.1667C20.5696 9.61111 20.2779 9.16667 19.8335 8.83333C19.3891 8.5 18.8891 8.33333 18.3335 8.33333C17.8335 8.33333 17.3821 8.46528 16.9793 8.72917C16.5766 8.99306 16.2641 9.36111 16.0418 9.83333L15.2502 11.6667H11.6668C11.1946 11.6667 10.7988 11.8264 10.4793 12.1458C10.1599 12.4653 10.0002 12.8611 10.0002 13.3333V15H6.66683V13.3333C6.66683 11.9444 7.146 10.7639 8.10433 9.79167C9.06266 8.81944 10.2224 8.33333 11.5835 8.33333C11.8057 8.33333 12.0418 8.35417 12.2918 8.39583C12.5418 8.4375 12.7779 8.48611 13.0002 8.54167C13.4724 7.48611 14.1877 6.63194 15.146 5.97917C16.1043 5.32639 17.1668 5 18.3335 5C19.6668 5 20.8404 5.39583 21.8543 6.1875C22.8682 6.97917 23.5557 8.01389 23.9168 9.29167C24.4446 8.73611 25.0557 8.29861 25.7502 7.97917C26.4446 7.65972 27.1807 7.5 27.9585 7.5C29.4585 7.5 30.7293 8.02778 31.771 9.08333C32.8127 10.1389 33.3335 11.4167 33.3335 12.9167V15Z" fill="#ADB6BD"/>
</g>
</svg>
